<?xml version="1.0" encoding="UTF-8"?><svg version="1.1" width="208px" height="82px" viewBox="0 0 208.0 82.0" xmlns="http://www.w3.org/2000/svg" xmlns:xlink="http://www.w3.org/1999/xlink"><defs><clipPath id="i0"><path d="M1440,0 L1440,4292 L0,4292 L0,0 L1440,0 Z"></path></clipPath><clipPath id="i1"><path d="M12.2957306,0.379304519 C19.9014231,6.51199801 19.9014231,16.4967896 12.2957306,22.6294831 C11.9867493,22.8722356 11.5826969,23 11.1707219,23 C10.7587469,23 10.3626171,22.8722356 10.0536358,22.6230949 C9.4356733,22.1248135 9.4356733,21.3135093 10.0536358,20.8152279 C16.4234033,15.6790971 16.4234033,7.31691403 10.0536358,2.18078323 C9.4356733,1.68250189 9.4356733,0.871197643 10.0536358,0.372916297 C10.6715983,-0.12536505 11.6777681,-0.12536505 12.2957306,0.379304519 Z M7.33670833,4.27181287 C12.5065979,8.33311141 12.5065979,14.9327215 7.32861774,18.9940201 C7.01308457,19.2415055 6.60046428,19.3684211 6.18784399,19.3684211 C5.7752237,19.3684211 5.3626034,19.2415055 5.04707024,18.9940201 C4.41600391,18.4990493 4.41600391,17.6931354 5.04707024,17.1981646 C8.95482712,14.1331534 8.95482712,9.13902534 5.04707024,6.06766832 C4.41600391,5.57269756 4.41600391,4.76678363 5.04707024,4.27181287 C5.67813657,3.77684211 6.705642,3.77684211 7.33670833,4.27181287 Z M2.68743547,7.64005125 C3.9028982,8.63221494 4.57377049,9.95939495 4.57377049,11.3638864 C4.57377049,12.7683779 3.9028982,14.0891153 2.68743547,15.0877216 C2.37962347,15.3389838 1.9771001,15.4678363 1.57457673,15.4678363 C1.17205335,15.4678363 0.769529979,15.3389838 0.461717988,15.0877216 C-0.153905996,14.5851971 -0.153905996,13.7669842 0.461717988,13.2644597 C1.08523459,12.7554926 1.42461704,12.08546 1.42461704,11.3638864 C1.42461704,10.6423128 1.08523459,9.9722802 0.461717988,9.46331311 C-0.153905996,8.96078864 -0.153905996,8.14257572 0.461717988,7.64005125 C1.07734197,7.13752678 2.07181148,7.13752678 2.68743547,7.64005125 Z"></path></clipPath><clipPath id="i2"><path d="M15.4421642,0 C20.011194,0 23.7126866,1.13513514 26.6623134,3.35135135 C29.5541045,5.56756757 31,8.54054054 31,12.2702703 C31,16.1081081 29.5541045,19.1891892 26.6623134,21.5135135 C23.8283582,23.8378378 20.0690299,24.972973 15.4421642,24.972973 L7.57649254,24.972973 L7.57649254,37.9459459 L0,38 L0,0 Z M15.0373134,6.27027027 L7.57649254,6.27027027 L7.57649254,18.8108108 L15.0373134,18.8108108 C17.4085821,18.8108108 19.375,18.2162162 20.9365672,17.0810811 C22.4402985,15.9459459 23.1921642,14.3783784 23.1921642,12.3783784 C23.1921642,10.4864865 22.4402985,8.97297297 20.9365672,7.89189189 C19.4328358,6.81081081 17.4664179,6.27027027 15.0373134,6.27027027 Z"></path></clipPath><clipPath id="i3"><path d="M0.00507719441,15.0936917 C0.0998312305,11.0506482 1.52029087,7.61787543 4.21880559,4.79537338 L4.51282051,4.49529767 C7.40541179,1.61393804 11.0664334,0.0994473057 15.4958853,0.00473651916 L15.9,0 L15.8994708,6.77257256 C13.5392245,6.79309101 11.5936471,7.53835805 10.0138704,9.05705194 L9.78754579,9.28249778 C8.14652015,10.975532 7.32600733,13.0772296 7.32600733,15.5875906 C7.32600733,18.0979517 8.14652015,20.1996493 9.78754579,21.8926835 C11.3539794,23.5087615 13.2942209,24.3269327 15.6592443,24.3979729 L15.9,24.401 L15.9002235,30.9999997 C11.4379678,30.9913149 7.73944037,29.5699462 4.80464108,26.7883199 L4.51282051,26.5047421 C1.62022923,23.6233825 0.0998349552,20.031251 0.0047549823,15.7812588 L0.001,15.47 L0.001,15.45 L0.00507719441,15.0936917 Z"></path></clipPath><clipPath id="i4"><path d="M16.9862218,0 C20.9664915,0 24.2740397,1.41806723 26.852806,4.25420168 C29.4315724,7.09033613 30.7209555,10.6638655 30.7209555,15.0315126 C30.7209555,19.3991597 29.4315724,23.0294118 26.7967459,25.9222689 C24.1619194,28.8151261 20.7983111,30.2331933 16.7059211,30.2331933 C14.7438162,30.2331933 12.9498918,29.8361345 11.2680877,29.0420168 C9.58628357,28.2478992 8.18478012,27.1134454 7.00751723,25.5819328 L7.00751723,41.5210084 L0,41.5210084 L0,0.737394958 L6.6711564,0.737394958 L6.6711564,5.21848739 C7.8484193,3.57352941 9.36204302,2.26890756 11.1559674,1.36134454 C12.9498918,0.453781513 14.9119967,0 16.9862218,0 Z M14.9680568,6.63655462 C12.5574709,6.63655462 10.595366,7.43067227 9.02568219,9.07563025 C7.45599833,10.7205882 6.6711564,12.762605 6.6711564,15.2016807 C6.6711564,17.697479 7.45599833,19.7394958 9.02568219,21.3844538 C10.595366,23.0294118 12.613531,23.8235294 15.0241169,23.8235294 C17.4347029,23.8235294 19.4528678,22.9726891 21.0225517,21.3277311 C22.5922355,19.6827731 23.3770775,17.6407563 23.3770775,15.0882353 L23.2649572,15.2584034 C23.2649572,12.8193277 22.4801153,10.7773109 20.9104314,9.13235294 C19.3407475,7.48739496 17.3786427,6.63655462 14.9680568,6.63655462 Z"></path></clipPath><clipPath id="i5"><path d="M15.3604778,0 L15.1922973,0.0567226891 C18.9483266,0.0567226891 22.1998146,1.19117647 24.8907012,3.46008403 C27.5815878,5.7289916 29.2633919,8.67857143 29.8800535,12.2521008 L22.8725362,12.2521008 C22.367995,10.5504202 21.4710328,9.18907563 20.0695293,8.11134454 C18.724086,7.09033613 17.1544022,6.57983193 15.3044176,6.57983193 C12.8938317,6.57983193 10.9317269,7.37394958 9.36204302,9.01890756 C7.79235916,10.6638655 7.00751723,12.7058824 7.00751723,15.144958 C7.00751723,17.5840336 7.79235916,19.6260504 9.36204302,21.2710084 C10.9317269,22.9159664 12.8938317,23.710084 15.3044176,23.710084 C17.1544022,23.710084 18.7801462,23.1428571 20.1816496,22.0651261 C21.5831531,20.987395 22.5361754,19.5693277 23.0407166,17.8109244 L29.9921737,17.8109244 C29.3755122,21.4978992 27.7497682,24.5042017 25.0028215,26.8298319 C22.367995,29.1554622 19.116507,30.289916 15.3604778,30.289916 C10.987787,30.289916 7.34387805,28.8151261 4.37269075,25.9222689 C1.45756358,23.0294118 0,19.4558824 0,15.0882353 C0,10.8340336 1.45756358,7.2605042 4.37269075,4.36764706 C7.34387805,1.47478992 10.987787,0 15.3604778,0 Z"></path></clipPath><clipPath id="i6"><path d="M12.8377716,0 C16.5938008,0 19.508928,1.0210084 21.5831531,3.00630252 C23.6573782,4.99159664 24.7225208,7.71428571 24.7225208,11.1743697 L24.7225208,29.4957983 L18.0513644,29.4957983 L17.9953042,25.9222689 C17.0422819,27.3403361 15.8089589,28.4180672 14.2953351,29.1554622 C12.7256513,29.8928571 11.0999073,30.289916 9.36204302,30.289916 C6.61509626,30.289916 4.37269075,29.4957983 2.63482648,27.9642857 C0.896962205,26.4327731 0,24.447479 0,22.0084034 C0,19.5693277 0.78484193,17.5840336 2.35452579,16.052521 C3.86814951,14.5210084 6.33479557,13.3865546 9.69840384,12.592437 L17.883184,10.6638655 L17.883184,10.3235294 C17.883184,9.01890756 17.4347029,7.94117647 16.4816805,7.14705882 C15.5286582,6.35294118 14.2953351,5.95588235 12.7817114,5.95588235 C11.3241478,5.95588235 10.0908248,6.35294118 9.13780247,7.09033613 C8.18478012,7.82773109 7.56811861,8.8487395 7.34387805,10.1533613 L0.616661516,10.1533613 C0.78484193,7.2605042 2.01816496,4.82142857 4.31663061,2.89285714 C6.61509626,0.964285714 9.41810315,0 12.8377716,0 Z M17.7710637,15.8823529 L11.380208,17.3571429 C9.75446398,17.7542017 8.63326122,18.2647059 7.90447943,18.8886555 C7.17569764,19.512605 6.78327668,20.3067227 6.78327668,21.2710084 C6.78327668,22.3487395 7.1196375,23.1428571 7.8484193,23.710084 C8.57720109,24.2773109 9.58628357,24.5609244 10.9317269,24.5609244 L10.9,24.559 L11.1742918,24.5548047 C12.8533007,24.4854953 14.3079137,23.8282515 15.5381309,22.6237027 L15.7528987,22.4054622 C17.098342,20.987395 17.7710637,19.342437 17.7710637,17.3571429 L17.7710637,15.8823529 Z"></path></clipPath><clipPath id="i7"><path d="M16.2826098,0.000165372271 C16.5434611,0.0011576059 16.7219383,0.0081032413 16.8180413,0.0567226891 L16.8180413,6.80672269 L15.9210791,6.63655462 C15.5286582,6.57983193 15.3044176,6.57983193 14.9119967,6.57983193 L14.8559365,6.69327731 C12.3892905,6.69327731 10.4832458,7.48739496 9.08174233,9.07563025 C7.68023888,10.6071429 7.00751723,12.7058824 7.00751723,15.3718487 L7.00751723,29.3256303 L0,29.3256303 L0,0.567226891 L6.6711564,0.567226891 L6.6711564,5.67226891 C7.62417874,3.85714286 8.85750178,2.43907563 10.3150654,1.47478992 C11.8286891,0.510504202 13.4544331,0 15.3044176,0 Z"></path></clipPath><clipPath id="i8"><path d="M30.7209555,0 L30.7209555,42.0315126 L24.1058593,42.0315126 L24.1058593,37.4369748 C22.9285964,39.1386555 21.4149726,40.4432773 19.6771084,41.3508403 C17.883184,42.2584034 15.9210791,42.7121849 13.7907939,42.7121849 L13.7347338,42.7689076 C9.75446398,42.7689076 6.44691585,41.3508403 3.86814951,38.5147059 C1.28938317,35.6785714 0,32.105042 0,27.737395 C0,23.3697479 1.28938317,19.7394958 3.92420965,16.8466387 C6.55903613,13.9537815 9.86658426,12.5357143 13.9029142,12.5357143 C15.865019,12.5357143 17.7150036,12.9327731 19.3968077,13.7268908 C21.134672,14.5777311 22.5361754,15.7121849 23.7134383,17.1869748 L23.7134383,0 L30.7209555,0 Z M15.5847183,19.0588235 C13.1741324,19.0588235 11.1559674,19.8529412 9.58628357,21.4978992 C8.01659971,23.1428571 7.23175778,25.2415966 7.23175778,27.6806723 L7.23175778,27.737395 C7.23175778,30.1764706 8.01659971,32.2184874 9.58628357,33.8634454 C11.1559674,35.5084034 13.1741324,36.302521 15.5847183,36.302521 C17.9953042,36.302521 19.9574091,35.4516807 21.5270929,33.8067227 C23.0967768,32.1617647 23.8816187,30.1197479 23.8816187,27.6806723 C23.8816187,25.2415966 23.0967768,23.1995798 21.5270929,21.5546218 C19.9574091,19.9096639 17.9953042,19.0588235 15.5847183,19.0588235 Z"></path></clipPath></defs><g transform="translate(-44.0 -121.0)"><g clip-path="url(#i0)"><g transform="translate(44.0 121.0)"><g transform="translate(44.0 15.0)"><g clip-path="url(#i1)"><polygon points="0,2.77555756e-16 18,2.77555756e-16 18,23 0,23 0,2.77555756e-16" stroke="none" fill="#000000"></polygon></g></g><g transform="translate(0.0 3.0)"><g clip-path="url(#i2)"><polygon points="0,0 31,0 31,38 0,38 0,0" stroke="none" fill="#000000"></polygon></g></g><g transform="translate(31.0 13.000000000000002)"><g clip-path="url(#i3)"><polygon points="0,0 16,0 16,30.9999997 0,30.9999997 0,0" stroke="none" fill="#000000"></polygon></g></g><g transform="translate(64.0 0.0)"><g transform="translate(0.0 12.478991596638707)"><g clip-path="url(#i4)"><polygon points="0,0 30.7209555,0 30.7209555,41.5210084 0,41.5210084 0,0" stroke="none" fill="#000000"></polygon></g></g><g transform="translate(32.84661724748252 12.478991596638702)"><g clip-path="url(#i5)"><polygon points="0,0 29.9921737,0 29.9921737,30.289916 0,30.289916 0,0" stroke="none" fill="#000000"></polygon></g></g><g transform="translate(65.24475339238482 12.478991596638702)"><g clip-path="url(#i6)"><polygon points="0,0 24.7225208,0 24.7225208,30.289916 0,30.289916 0,0" stroke="none" fill="#000000"></polygon></g></g><g transform="translate(95.79290498914342 12.76260504201718)"><g clip-path="url(#i7)"><polygon points="0,0 16.8180413,0 16.8180413,29.3256303 0,29.3256303 0,0" stroke="none" fill="#000000"></polygon></g></g><g transform="translate(113.27904447325218 0.0)"><g clip-path="url(#i8)"><polygon points="0,0 30.7209555,0 30.7209555,42.7689076 0,42.7689076 0,0" stroke="none" fill="#000000"></polygon></g></g></g><g transform="translate(114.0 47.0)"><text transform="translate(0.0 27.0)" font-family="SteradianMedium, Steradian " font-size="27.0" font-weight="400" fill="#000000" text-anchor="left" letter-spacing="-1.090384615384615">Metrics</text></g></g></g></g></svg>