<svg width="24" height="20" viewBox="0 0 24 20" fill="none" xmlns="http://www.w3.org/2000/svg">
<path d="M0.728065 1.43842H4.73535C4.50177 1.26341 4.26576 1.08601 4.03219 0.910998C4.14898 1.26101 4.26576 1.61103 4.38255 1.96344C4.66479 2.80491 4.94459 3.64639 5.22683 4.48786C5.56503 5.49955 5.90566 6.51364 6.24386 7.52772C6.53826 8.40755 6.83266 9.28738 7.12463 10.1672C7.26819 10.5939 7.40444 11.0231 7.55286 11.4474C7.55529 11.4546 7.55772 11.4594 7.56016 11.4666C7.67938 11.8238 8.0711 12.0923 8.45796 11.97C8.81806 11.855 9.09543 11.469 8.96891 11.0854C8.85212 10.7354 8.73533 10.3854 8.61855 10.033C8.33631 9.19149 8.0565 8.35001 7.77427 7.50854C7.43607 6.49446 7.09787 5.48037 6.75724 4.46629C6.46284 3.58645 6.16843 2.70662 5.87646 1.82679C5.73291 1.40006 5.59909 0.970932 5.44824 0.546599C5.44581 0.539407 5.44338 0.534612 5.44094 0.52742C5.33875 0.225352 5.06868 0 4.73778 0H0.730498C0.348504 0 -0.0164579 0.330836 0.000573636 0.719209C0.0151721 1.10998 0.319307 1.43842 0.728065 1.43842Z" fill="black"/>
<path d="M7.43264 11.3658C7.04308 12.0933 6.65112 12.8182 6.26156 13.5457C6.20626 13.6514 6.14854 13.7546 6.09324 13.8603C5.82632 14.3562 6.16297 14.9955 6.71605 14.9955H17.7294C18.2368 14.9955 18.7466 15.0056 19.2564 14.9955H19.278C19.6556 14.9955 20.0163 14.6482 19.9994 14.2404C19.9826 13.8301 19.682 13.4852 19.278 13.4852H8.26465C7.75727 13.4852 7.24507 13.4701 6.73769 13.4852H6.71605C6.92285 13.8628 7.13205 14.2429 7.33885 14.6205C7.72841 13.893 8.12037 13.1681 8.50993 12.4406C8.56524 12.3349 8.62295 12.2317 8.67825 12.126C8.86341 11.7812 8.76723 11.2853 8.41855 11.094C8.07709 10.9077 7.62982 10.9983 7.43264 11.3658Z" fill="black"/>
<circle cx="17.5" cy="17.5" r="1.5" fill="black"/>
<path d="M16 17.9979C16.0091 18.85 16.5428 19.5862 17.3355 19.8839C18.085 20.1657 19.0071 19.9203 19.5181 19.3022C20.0609 18.6432 20.1699 17.7048 19.718 16.964C19.2728 16.2323 18.4188 15.8756 17.5853 16.0392C16.6655 16.2187 16.0091 17.0753 16 17.9979C15.9977 18.2365 16.2112 18.4637 16.4543 18.4524C16.7018 18.441 16.9062 18.2524 16.9085 17.9979C16.9085 17.9615 16.9108 17.9229 16.913 17.8866C16.913 17.8706 16.9153 17.8547 16.9176 17.8388C16.9244 17.7479 16.9153 17.8684 16.913 17.8661C16.8971 17.857 16.9607 17.6616 16.9675 17.6434C16.9744 17.6252 16.988 17.548 17.0039 17.5434C17.0084 17.5412 16.963 17.6275 16.988 17.5821C16.9971 17.5639 17.0062 17.5457 17.013 17.5275C17.047 17.4594 17.0879 17.398 17.1288 17.3344C17.172 17.2685 17.0675 17.4048 17.1402 17.3207C17.1629 17.2958 17.1856 17.2685 17.2106 17.2435C17.2355 17.2185 17.2605 17.1935 17.2855 17.1708C17.2969 17.1617 17.3082 17.1503 17.3196 17.1412C17.3355 17.1276 17.4013 17.0958 17.3423 17.1208C17.2923 17.1412 17.3287 17.1321 17.3446 17.1208C17.3605 17.1094 17.3764 17.0981 17.3945 17.0867C17.4195 17.0708 17.4445 17.0549 17.4717 17.0413C17.5058 17.0208 17.5422 17.0049 17.5785 16.9867C17.5899 16.9799 17.6375 16.9572 17.5785 16.9844C17.5104 17.0163 17.6012 16.9776 17.608 16.9754C17.6693 16.9526 17.7352 16.9345 17.7988 16.9208C17.8192 16.9163 17.8397 16.914 17.8601 16.9095C17.9101 16.8981 17.817 16.914 17.817 16.914C17.8579 16.914 17.901 16.9049 17.9419 16.9049C18.0168 16.9026 18.0895 16.9049 18.1645 16.9117C18.2485 16.9185 18.0782 16.8958 18.1826 16.9163C18.2235 16.9231 18.2621 16.9345 18.303 16.9435C18.3371 16.9526 18.3711 16.964 18.4052 16.9754C18.4143 16.9776 18.4597 16.9935 18.462 16.9958C18.4643 17.0026 18.378 16.9526 18.4234 16.9799C18.487 17.0185 18.5574 17.0481 18.621 17.089C18.6369 17.1003 18.6528 17.1117 18.6709 17.1231C18.6868 17.1344 18.7209 17.1435 18.6732 17.1231C18.6278 17.1049 18.6573 17.1094 18.6732 17.1253C18.6891 17.139 18.7027 17.1503 18.7186 17.164C18.7754 17.2139 18.8231 17.2685 18.8731 17.323C18.9412 17.398 18.8413 17.2708 18.8844 17.3367C18.9026 17.3662 18.923 17.3935 18.9412 17.423C18.9594 17.4525 18.9775 17.4844 18.9934 17.5139L19.0139 17.5548C19.057 17.6366 19.023 17.548 19.0116 17.5434C19.0389 17.5525 19.0684 17.7161 19.0775 17.7457C19.0843 17.7752 19.0911 17.807 19.0979 17.8366C19.1161 17.9229 19.0957 17.8093 19.0957 17.807C19.107 17.8184 19.1025 17.8706 19.1025 17.8843C19.107 17.9524 19.107 18.0229 19.1025 18.0911C19.1002 18.1115 19.0979 18.132 19.0979 18.1547C19.0957 18.2001 19.0707 18.1933 19.1025 18.1274C19.0866 18.1615 19.0866 18.2115 19.0775 18.2478C19.0616 18.3115 19.0366 18.3728 19.0184 18.4365C19.0003 18.4933 19.0593 18.3592 19.0298 18.4115C19.023 18.4228 19.0162 18.4387 19.0116 18.4524C18.9934 18.4887 18.9753 18.5228 18.9548 18.5569C18.9367 18.5864 18.9185 18.616 18.8981 18.6455C18.8367 18.7387 18.9412 18.6001 18.889 18.6614C18.839 18.7182 18.7913 18.7728 18.7345 18.8227C18.7254 18.8318 18.6709 18.8909 18.655 18.8909C18.655 18.8909 18.7482 18.8273 18.6755 18.8727C18.6619 18.8818 18.6505 18.8886 18.6391 18.8977C18.5755 18.9386 18.5097 18.9727 18.4438 19.0068C18.3734 19.0432 18.5256 18.9795 18.4279 19.0136C18.3939 19.025 18.3621 19.0363 18.328 19.0477C18.2939 19.0568 18.2599 19.0659 18.2235 19.075C18.2076 19.0772 18.194 19.0818 18.1781 19.0841C18.0782 19.1068 18.2508 19.0795 18.1917 19.0841C18.1168 19.0909 18.0441 19.0954 17.9691 19.0931C17.9328 19.0931 17.8965 19.0886 17.8579 19.0863C17.8442 19.0863 17.7897 19.0795 17.8556 19.0863C17.9305 19.0931 17.8397 19.0818 17.8238 19.0795C17.7443 19.0636 17.6671 19.0386 17.5899 19.0113C17.5762 19.0068 17.5308 18.9841 17.5876 19.0113C17.6534 19.0432 17.574 19.0045 17.5603 18.9977C17.524 18.9795 17.4899 18.9614 17.4559 18.9409C17.4218 18.9205 17.39 18.8977 17.3559 18.875C17.3014 18.8409 17.3627 18.8932 17.3764 18.8932C17.3673 18.8932 17.3377 18.8614 17.3309 18.8546C17.2719 18.8023 17.2151 18.7478 17.1629 18.6864C17.1629 18.6864 17.1243 18.6478 17.1243 18.641C17.1243 18.65 17.1788 18.7182 17.1424 18.6614C17.1197 18.6273 17.097 18.5955 17.0766 18.5614C17.0539 18.5228 17.0334 18.4819 17.013 18.4433C16.9653 18.3501 17.0357 18.516 16.9993 18.4137C16.9721 18.3365 16.9494 18.2592 16.9335 18.1774C16.9312 18.1638 16.9312 18.1433 16.9244 18.132C16.9585 18.2069 16.9312 18.1956 16.9267 18.1433C16.9221 18.0956 16.9199 18.0479 16.9199 18.0002C16.9176 17.7616 16.7132 17.5343 16.4656 17.5457C16.2112 17.5525 15.9977 17.7434 16 17.9979Z" fill="black"/>
<circle cx="9.5" cy="17.5" r="1.5" fill="black"/>
<path fill-rule="evenodd" clip-rule="evenodd" d="M20.0137 11.6457L23 4H6L8.53856 11.6457H20.0137ZM7.08294 17.8137C7.08233 17.8249 7.08213 17.8363 7.08233 17.8478C7.08226 17.8549 7.08238 17.862 7.08267 17.8691C7.10119 18.7761 7.67692 19.5577 8.52872 19.8752C9.34047 20.1781 10.3392 19.9143 10.8926 19.2499C11.4805 18.5415 11.5986 17.5326 11.1091 16.7363C10.627 15.9498 9.70207 15.5663 8.79931 15.7421C7.81204 15.9329 7.10843 16.835 7.08294 17.8137ZM8.06915 17.7618C8.07506 17.7909 8.07829 17.8205 8.07857 17.8502C8.07857 17.8984 8.08075 17.9467 8.0851 17.9949M8.06915 17.7618C8.06979 17.7505 8.07049 17.7392 8.07119 17.7281C8.07119 17.711 8.07365 17.6939 8.07611 17.6768C8.07934 17.634 8.07927 17.6348 8.07797 17.6489C8.0763 17.667 8.07258 17.7075 8.07119 17.7061C8.05397 17.6963 8.12285 17.4862 8.13023 17.4667C8.1323 17.4612 8.13495 17.4507 8.13808 17.4383C8.14609 17.4067 8.1572 17.3627 8.16958 17.3592C8.1722 17.3579 8.15954 17.3835 8.15115 17.4005C8.14375 17.4154 8.13968 17.4236 8.15237 17.4007C8.16221 17.3812 8.17204 17.3617 8.17942 17.3421C8.21206 17.2773 8.25046 17.2182 8.28953 17.1581C8.29464 17.1503 8.29976 17.1424 8.30488 17.1345C8.30549 17.1336 8.30607 17.1327 8.30663 17.1318C8.30968 17.1284 8.31318 17.1244 8.31718 17.1198C8.32503 17.1112 8.33288 17.1024 8.34081 17.0935C8.35773 17.0745 8.37501 17.0551 8.39343 17.0368C8.42049 17.0099 8.44755 16.983 8.47461 16.9586C8.48075 16.9537 8.4869 16.9482 8.49305 16.9427C8.4992 16.9372 8.50535 16.9317 8.5115 16.9269C8.51854 16.9209 8.5346 16.9116 8.54678 16.9046C8.56342 16.895 8.57283 16.8896 8.54209 16.9024C8.55814 16.891 8.57434 16.8796 8.59268 16.8682L8.59269 16.8682C8.61975 16.8511 8.6468 16.834 8.67631 16.8194C8.70261 16.8037 8.73016 16.7905 8.75807 16.7772C8.76701 16.7729 8.77598 16.7686 8.78496 16.7642C8.79095 16.7618 8.79752 16.7591 8.80354 16.7567C8.81347 16.7526 8.82193 16.7492 8.8239 16.7485C8.89032 16.7241 8.96166 16.7046 9.03053 16.6899C9.0416 16.6875 9.05267 16.6856 9.06374 16.6838C9.06816 16.6831 9.07259 16.6823 9.07702 16.6816C9.09054 16.6806 9.1042 16.6792 9.11786 16.6777C9.14061 16.6753 9.16336 16.6728 9.1855 16.6728C9.2644 16.6704 9.34097 16.6727 9.41974 16.6795C9.42572 16.6809 9.43433 16.6827 9.44625 16.685C9.47472 16.6897 9.50218 16.6965 9.52993 16.7033C9.54533 16.707 9.56082 16.7108 9.57662 16.7143C9.61351 16.7241 9.65041 16.7363 9.6873 16.7485L9.68731 16.7485C9.69121 16.7495 9.70127 16.7528 9.71216 16.7565C9.74219 16.7743 9.77353 16.7904 9.80499 16.8065C9.84426 16.8266 9.88371 16.8469 9.921 16.8707L9.92102 16.8707C9.93372 16.8797 9.94642 16.8887 9.9601 16.8977C9.95635 16.8959 9.95333 16.8948 9.95204 16.8947C9.94957 16.8944 9.95341 16.8973 9.97059 16.9045C9.97186 16.9053 9.97313 16.9061 9.97441 16.9069C9.9755 16.9078 9.97656 16.9087 9.97757 16.9098L10.0268 16.9513C10.0792 16.9971 10.1246 17.0466 10.1704 17.0965C10.1782 17.1051 10.1861 17.1137 10.194 17.1223C10.1975 17.1261 10.2006 17.1294 10.2033 17.1322C10.2042 17.1337 10.2052 17.1353 10.2063 17.1369C10.2162 17.1528 10.2266 17.1681 10.2371 17.1833C10.2475 17.1986 10.258 17.2139 10.2678 17.2297C10.2875 17.2615 10.3072 17.2957 10.3244 17.3275L10.3465 17.3714C10.3933 17.4594 10.3564 17.3641 10.3441 17.3592C10.3667 17.3667 10.3907 17.4715 10.4052 17.5345C10.4096 17.5538 10.4131 17.5692 10.4154 17.5766C10.4191 17.5925 10.4228 17.609 10.4265 17.6255C10.4302 17.642 10.4339 17.6584 10.4376 17.6743C10.4401 17.6865 10.442 17.695 10.4433 17.7005C10.4432 17.7056 10.443 17.7104 10.4428 17.7146C10.4426 17.7192 10.4425 17.7231 10.4425 17.7256C10.4474 17.7989 10.4474 17.8746 10.4425 17.9479L10.4425 17.9479C10.4407 17.9638 10.4389 17.9796 10.4381 17.9964C10.4241 18.0278 10.4236 18.0445 10.4267 18.0472C10.4257 18.054 10.4247 18.0609 10.4238 18.0677C10.4214 18.0849 10.4191 18.1017 10.4154 18.1165C10.4057 18.1551 10.3928 18.193 10.3799 18.231C10.3707 18.2579 10.3615 18.285 10.3535 18.3124C10.3499 18.3203 10.3467 18.3286 10.3441 18.3363C10.3244 18.3754 10.3047 18.412 10.2826 18.4487L10.2826 18.4487C10.2629 18.4804 10.2432 18.5122 10.2211 18.5439C10.2148 18.5535 10.2101 18.5607 10.2067 18.5662C10.1542 18.6254 10.1038 18.6822 10.044 18.7345C10.0427 18.7357 10.0407 18.7378 10.038 18.7406C10.0307 18.7481 10.0188 18.7604 10.0062 18.7724C10.0018 18.7748 9.99359 18.7798 9.98003 18.7882C9.97622 18.7907 9.97258 18.7931 9.96905 18.7954C9.95892 18.8019 9.9498 18.8078 9.94067 18.8151C9.87181 18.859 9.80048 18.8957 9.72915 18.9323L9.72913 18.9323C9.7261 18.9339 9.72346 18.9353 9.72116 18.9365C9.71834 18.9374 9.71526 18.9385 9.71191 18.9396C9.69346 18.9458 9.67562 18.9519 9.65779 18.958C9.63996 18.9641 9.62212 18.9702 9.60368 18.9763L9.60349 18.9763C9.56666 18.9861 9.52981 18.9958 9.49052 19.0056C9.48191 19.0068 9.47392 19.0087 9.46592 19.0105C9.45793 19.0123 9.44993 19.0142 9.44133 19.0154C9.43804 19.0161 9.43502 19.0168 9.43226 19.0175C9.35944 19.0236 9.28823 19.0273 9.21502 19.0251C9.18947 19.0251 9.16392 19.0231 9.13769 19.021C9.13296 19.0206 9.1282 19.0202 9.12342 19.0198C9.12029 19.0188 9.09285 19.0152 9.07372 19.0126C9.06668 19.0117 9.06076 19.0109 9.05759 19.0105C8.97149 18.9934 8.88786 18.9665 8.80423 18.9372C8.80173 18.9364 8.79826 18.935 8.7945 18.9334C8.78493 18.9288 8.77612 18.9245 8.77225 18.9225C8.73289 18.903 8.69599 18.8835 8.65909 18.8615C8.63283 18.8458 8.6078 18.8289 8.58225 18.8117C8.57192 18.8047 8.56149 18.7977 8.55086 18.7906C8.54558 18.7874 8.5413 18.7848 8.5379 18.7829C8.534 18.7791 8.53049 18.7755 8.52778 18.7727C8.52611 18.771 8.52475 18.7696 8.5238 18.7687C8.45985 18.7125 8.39835 18.6539 8.34177 18.5879C8.34177 18.5879 8.33505 18.5812 8.327 18.5728C8.32507 18.5696 8.32264 18.5657 8.31964 18.561C8.31255 18.5505 8.30546 18.5401 8.29843 18.5298C8.28107 18.5045 8.26406 18.4796 8.2483 18.4535C8.22998 18.4226 8.21303 18.3903 8.19642 18.3587C8.19073 18.3479 8.18508 18.3371 8.17942 18.3265C8.17503 18.318 8.17156 18.3115 8.16886 18.3067C8.16764 18.3031 8.16625 18.2992 8.16467 18.2948C8.13515 18.2117 8.11055 18.1287 8.09333 18.0407C8.09313 18.0396 8.09295 18.0383 8.09278 18.0371C8.10108 18.0596 8.1104 18.0531 8.08678 17.9992C8.08954 18.0075 8.09063 18.0177 8.09164 18.0272C8.092 18.0306 8.09236 18.034 8.09278 18.0371C8.08992 18.0293 8.08717 18.0181 8.08595 18.0041C8.08568 18.0012 8.08541 17.9984 8.08516 17.9955C8.08571 17.9968 8.08625 17.998 8.08678 17.9992M9.97228 16.9052C9.96816 16.902 9.96378 16.8995 9.9601 16.8977C9.96353 16.9 9.96702 16.9022 9.97059 16.9045C9.97114 16.9047 9.97171 16.9049 9.97228 16.9052ZM9.72331 16.7604C9.73618 16.765 9.74765 16.7694 9.74881 16.7705C9.74974 16.7733 9.73693 16.7673 9.72331 16.7604ZM10.4382 17.6614C10.4399 17.6712 10.4419 17.683 10.4434 17.6925C10.4436 17.6722 10.4424 17.6498 10.4351 17.6426C10.4351 17.6432 10.4365 17.6512 10.4382 17.6614ZM10.438 17.9979C10.438 17.9974 10.4381 17.9969 10.4381 17.9964C10.4394 17.9934 10.4409 17.9903 10.4425 17.987C10.4408 17.9905 10.4394 17.9941 10.438 17.9979ZM10.4267 18.0472C10.4294 18.0299 10.4326 18.0129 10.438 17.9979C10.4377 18.0039 10.4376 18.01 10.4376 18.0163C10.4364 18.0393 10.4298 18.0498 10.4267 18.0472ZM9.99838 18.7797C9.98195 18.7948 9.96566 18.8077 9.95789 18.8077C9.95789 18.8077 9.983 18.7907 9.99838 18.7797ZM9.09124 19.0177C9.08204 19.0173 9.0655 19.0156 9.05965 19.0149C9.05385 19.0142 9.05854 19.0144 9.09124 19.0177ZM8.78555 18.9295C8.77908 18.9266 8.77337 18.9239 8.77195 18.9232C8.77046 18.9225 8.77366 18.9239 8.78555 18.9295Z" fill="black"/>
<path d="M23.0265 3.37853C22.6894 4.27599 22.3548 5.17345 22.0177 6.0709C21.4813 7.50226 20.9449 8.93107 20.4109 10.3624C20.2879 10.6904 20.1649 11.0209 20.0418 11.3489C20.1993 11.2243 20.3593 11.0997 20.5167 10.9751H10.4506C9.98802 10.9751 9.52052 10.9548 9.05547 10.9751H9.03579C9.19326 11.0997 9.3532 11.2243 9.51068 11.3489C9.22279 10.4463 8.93737 9.54633 8.64948 8.64379C8.19428 7.21751 7.73908 5.79124 7.28633 4.36243C7.18053 4.03446 7.07719 3.7065 6.97138 3.37599C6.81391 3.58955 6.65397 3.80565 6.4965 4.01921H22.8124C23.0339 4.01921 23.2553 4.02429 23.4743 4.01921H23.5038C23.7622 4.01921 24.0083 3.78531 23.996 3.51073C23.9837 3.23616 23.7794 3.00226 23.5038 3.00226H7.18791C6.96646 3.00226 6.74501 2.99718 6.52602 3.00226H6.4965C6.18893 3.00226 5.92073 3.33023 6.02161 3.64548C6.3095 4.54802 6.59492 5.44802 6.8828 6.35056C7.33801 7.77684 7.79321 9.20311 8.24595 10.6319C8.35175 10.9599 8.4551 11.2879 8.5609 11.6184C8.6298 11.8319 8.81188 11.9921 9.03579 11.9921H19.1019C19.5645 11.9921 20.032 12.0099 20.497 11.9921H20.5167C20.7505 11.9921 20.9129 11.8294 20.9916 11.6184C21.3287 10.7209 21.6633 9.82345 22.0004 8.92599C22.5368 7.49463 23.0732 6.06582 23.6072 4.63446C23.7302 4.3065 23.8532 3.97599 23.9763 3.64802C24.0698 3.39887 23.8729 3.07853 23.6318 3.0226C23.3488 2.9565 23.1249 3.11158 23.0265 3.37853Z" fill="black"/>
</svg>
