<svg width="24" height="24" viewBox="0 0 24 24" fill="none" xmlns="http://www.w3.org/2000/svg">
<path d="M22.5798 7.79077C21.3832 8.9934 19.6662 9.41171 18.1574 8.9934L15.9202 11.2418L11.3418 15.8955L9.10461 18.1439C9.52084 19.7126 9.10461 21.3858 7.90798 22.6407C6.81539 23.7388 5.35862 24.1571 3.95387 23.948L5.93092 21.961L5.15051 18.8237L2.02884 18.0916L0.0517893 20.0786C-0.156322 18.6668 0.2599 17.2027 1.35248 16.1047C2.54912 14.902 4.26604 14.4837 5.82687 14.902L8.06406 12.6536L12.6945 8.05221L14.9317 5.8038C14.5155 4.23514 14.9317 2.5619 16.1284 1.35926C17.2209 0.261204 18.6777 -0.157105 20.0825 0.052049L18.1054 2.03902L18.8858 5.17633L22.0075 5.96066L23.9845 3.9737C24.0886 5.22862 23.6724 6.6927 22.5798 7.79077Z" fill="black"/>
<path fill-rule="evenodd" clip-rule="evenodd" d="M8.35765 3.68862L6.10183 1.4328C5.52476 0.855732 4.58046 0.855732 4.00339 1.4328L1.4328 4.00339C0.855732 4.58046 0.855732 5.52476 1.4328 6.10183L3.68862 8.35765L8.35765 3.68862ZM7.30843 11.925L11.9775 7.25597L9.14456 4.42308L4.47554 9.0921L7.30843 11.925ZM16.1219 20.7384L20.7909 16.0694L16.7514 12.0299L12.0824 16.6989L16.1219 20.7384ZM18.1154 22.1549C17.6432 22.05 17.2236 21.7877 16.8563 21.4729L21.4729 16.8563C21.8401 17.2236 22.05 17.6432 22.1549 18.1154L22.9943 22.3647C23.0467 22.732 22.732 23.0467 22.3647 22.9943L18.1154 22.1549Z" fill="black"/>
</svg>
