<svg width="26" height="26" viewBox="0 0 26 26" fill="none" xmlns="http://www.w3.org/2000/svg">
<path d="M12.9913 11.999C14.6482 11.999 15.9913 13.3421 15.9913 14.9988L15.9897 16.4954C16.1954 20.1683 13.3664 21.9999 8.12024 21.9999C2.89099 21.9999 0 20.1922 0 16.5478V14.9988C0 13.3421 1.34312 11.999 2.99994 11.999H12.9913Z" fill="black"/>
<path d="M7.99985 0C10.7617 0 13.0006 2.23877 13.0006 5.00044C13.0006 7.76211 10.7617 10.0009 7.99985 10.0009C5.23803 10.0009 2.99913 7.76211 2.99913 5.00044C2.99913 2.23877 5.23803 0 7.99985 0Z" fill="black"/>
<mask id="path-3-outside-1_0_341" maskUnits="userSpaceOnUse" x="12" y="12" width="14" height="14" fill="black">
<rect fill="white" x="12" y="12" width="14" height="14"/>
<path fill-rule="evenodd" clip-rule="evenodd" d="M25 18.2384V19.7384L23.2067 20.503C23.1569 20.6421 23.1055 20.7786 23.0425 20.9132L23.7809 22.7031L22.7204 23.7636L20.9215 23.0429C20.7869 23.1074 20.6463 23.1629 20.5041 23.2157L19.7616 25H18.2616L17.503 23.2247C17.3537 23.1734 17.2086 23.1194 17.0665 23.0519L15.2954 23.7812L14.2349 22.7207L14.9481 20.9425C14.878 20.7974 14.8195 20.6493 14.7651 20.497L13 19.7616V18.2616L14.7636 17.5075C14.818 17.3549 14.875 17.2071 14.9455 17.062L14.2188 15.2954L15.2792 14.2349L17.062 14.9511C17.2041 14.8836 17.3478 14.8281 17.497 14.7752L18.2384 13H19.7384L20.4985 14.7812C20.6411 14.8313 20.781 14.889 20.9174 14.9541L22.7031 14.2188L23.764 15.2792L23.0402 17.0811C23.1034 17.2147 23.1591 17.3517 23.2071 17.4914L25 18.2384ZM16.7384 19C16.7384 20.242 17.7464 21.25 18.9884 21.25C20.2304 21.25 21.2384 20.242 21.2384 19C21.2384 17.758 20.2304 16.75 18.9884 16.75C17.7464 16.75 16.7384 17.758 16.7384 19Z"/>
</mask>
<path fill-rule="evenodd" clip-rule="evenodd" d="M25 18.2384V19.7384L23.2067 20.503C23.1569 20.6421 23.1055 20.7786 23.0425 20.9132L23.7809 22.7031L22.7204 23.7636L20.9215 23.0429C20.7869 23.1074 20.6463 23.1629 20.5041 23.2157L19.7616 25H18.2616L17.503 23.2247C17.3537 23.1734 17.2086 23.1194 17.0665 23.0519L15.2954 23.7812L14.2349 22.7207L14.9481 20.9425C14.878 20.7974 14.8195 20.6493 14.7651 20.497L13 19.7616V18.2616L14.7636 17.5075C14.818 17.3549 14.875 17.2071 14.9455 17.062L14.2188 15.2954L15.2792 14.2349L17.062 14.9511C17.2041 14.8836 17.3478 14.8281 17.497 14.7752L18.2384 13H19.7384L20.4985 14.7812C20.6411 14.8313 20.781 14.889 20.9174 14.9541L22.7031 14.2188L23.764 15.2792L23.0402 17.0811C23.1034 17.2147 23.1591 17.3517 23.2071 17.4914L25 18.2384ZM16.7384 19C16.7384 20.242 17.7464 21.25 18.9884 21.25C20.2304 21.25 21.2384 20.242 21.2384 19C21.2384 17.758 20.2304 16.75 18.9884 16.75C17.7464 16.75 16.7384 17.758 16.7384 19Z" fill="black"/>
<path d="M25 19.7384L25.3922 20.6582L26 20.3991V19.7384H25ZM25 18.2384H26V17.5717L25.3846 17.3153L25 18.2384ZM23.2067 20.503L22.8145 19.5831L22.4128 19.7544L22.2654 20.1655L23.2067 20.503ZM23.0425 20.9132L22.1368 20.4894L21.9503 20.8879L22.1181 21.2946L23.0425 20.9132ZM23.7809 22.7031L24.488 23.4102L24.9597 22.9385L24.7053 22.3218L23.7809 22.7031ZM22.7204 23.7636L22.3485 24.6919L22.9609 24.9373L23.4275 24.4707L22.7204 23.7636ZM20.9215 23.0429L21.2934 22.1146L20.8856 21.9512L20.4894 22.141L20.9215 23.0429ZM20.5041 23.2157L20.1554 22.2785L19.7479 22.4301L19.5809 22.8315L20.5041 23.2157ZM19.7616 25V26H20.4286L20.6849 25.3842L19.7616 25ZM18.2616 25L17.3421 25.393L17.6015 26H18.2616V25ZM17.503 23.2247L18.4226 22.8318L18.2481 22.4237L17.8285 22.2792L17.503 23.2247ZM17.0665 23.0519L17.4955 22.1486L17.0953 21.9585L16.6857 22.1272L17.0665 23.0519ZM15.2954 23.7812L14.5883 24.4884L15.0597 24.9598L15.6762 24.7059L15.2954 23.7812ZM14.2349 22.7207L13.3067 22.3485L13.061 22.9611L13.5278 23.4279L14.2349 22.7207ZM14.9481 20.9425L15.8763 21.3148L16.0406 20.905L15.8485 20.5074L14.9481 20.9425ZM14.7651 20.497L15.7069 20.1607L15.5581 19.744L15.1497 19.5739L14.7651 20.497ZM13 19.7616H12V20.4283L12.6154 20.6847L13 19.7616ZM13 18.2616L12.6068 17.3422L12 17.6016V18.2616H13ZM14.7636 17.5075L15.1568 18.427L15.5589 18.255L15.7056 17.8431L14.7636 17.5075ZM14.9455 17.062L15.845 17.499L16.0408 17.0959L15.8703 16.6816L14.9455 17.062ZM14.2188 15.2954L13.5116 14.5883L13.0404 15.0595L13.2939 15.6758L14.2188 15.2954ZM15.2792 14.2349L15.6521 13.307L15.0392 13.0607L14.5721 13.5278L15.2792 14.2349ZM17.062 14.9511L16.6892 15.879L17.0955 16.0423L17.491 15.8544L17.062 14.9511ZM17.497 14.7752L17.8309 15.7178L18.2489 15.5698L18.4198 15.1606L17.497 14.7752ZM18.2384 13V12H17.5723L17.3156 12.6146L18.2384 13ZM19.7384 13L20.6581 12.6075L20.3989 12H19.7384V13ZM20.4985 14.7812L19.5787 15.1737L19.7517 15.5791L20.1676 15.7249L20.4985 14.7812ZM20.9174 14.9541L20.4864 15.8565L20.8873 16.048L21.2982 15.8788L20.9174 14.9541ZM22.7031 14.2188L23.4101 13.5115L22.9387 13.0403L22.3223 13.2941L22.7031 14.2188ZM23.764 15.2792L24.6919 15.652L24.9381 15.039L24.471 14.572L23.764 15.2792ZM23.0402 17.0811L22.1123 16.7084L21.9496 17.1135L22.136 17.5082L23.0402 17.0811ZM23.2071 17.4914L22.2615 17.8167L22.4077 18.2416L22.8225 18.4145L23.2071 17.4914ZM26 19.7384V18.2384H24V19.7384H26ZM23.599 21.4229L25.3922 20.6582L24.6078 18.8185L22.8145 19.5831L23.599 21.4229ZM23.9482 21.3371C24.0317 21.1588 24.0957 20.9865 24.1481 20.8405L22.2654 20.1655C22.218 20.2977 22.1793 20.3985 22.1368 20.4894L23.9482 21.3371ZM24.7053 22.3218L23.9669 20.5319L22.1181 21.2946L22.8564 23.0845L24.7053 22.3218ZM23.4275 24.4707L24.488 23.4102L23.0738 21.996L22.0133 23.0565L23.4275 24.4707ZM20.5496 23.9711L22.3485 24.6919L23.0923 22.8354L21.2934 22.1146L20.5496 23.9711ZM20.8528 24.153C21.0047 24.0965 21.1783 24.0287 21.3536 23.9447L20.4894 22.141C20.3955 22.1861 20.2878 22.2292 20.1554 22.2785L20.8528 24.153ZM20.6849 25.3842L21.4274 23.6L19.5809 22.8315L18.8384 24.6158L20.6849 25.3842ZM18.2616 26H19.7616V24H18.2616V26ZM16.5834 23.6177L17.3421 25.393L19.1812 24.607L18.4226 22.8318L16.5834 23.6177ZM16.6375 23.9552C16.8295 24.0463 17.0153 24.1145 17.1775 24.1703L17.8285 22.2792C17.6922 22.2323 17.5878 22.1924 17.4955 22.1486L16.6375 23.9552ZM15.6762 24.7059L17.4473 23.9765L16.6857 22.1272L14.9146 22.8566L15.6762 24.7059ZM13.5278 23.4279L14.5883 24.4884L16.0025 23.0741L14.942 22.0136L13.5278 23.4279ZM14.02 20.5702L13.3067 22.3485L15.163 23.093L15.8763 21.3148L14.02 20.5702ZM13.8234 20.8333C13.8848 21.0052 13.9567 21.1892 14.0477 21.3776L15.8485 20.5074C15.7993 20.4055 15.7542 20.2933 15.7069 20.1607L13.8234 20.8333ZM12.6154 20.6847L14.3806 21.4201L15.1497 19.5739L13.3846 18.8385L12.6154 20.6847ZM12 18.2616V19.7616H14V18.2616H12ZM14.3705 16.588L12.6068 17.3422L13.3932 19.1811L15.1568 18.427L14.3705 16.588ZM14.046 16.625C13.9522 16.8182 13.881 17.0053 13.8216 17.1719L15.7056 17.8431C15.755 17.7045 15.7978 17.596 15.845 17.499L14.046 16.625ZM13.2939 15.6758L14.0207 17.4424L15.8703 16.6816L15.1436 14.9149L13.2939 15.6758ZM14.5721 13.5278L13.5116 14.5883L14.9259 16.0025L15.9864 14.942L14.5721 13.5278ZM17.4348 14.0232L15.6521 13.307L14.9064 15.1628L16.6892 15.879L17.4348 14.0232ZM17.1631 13.8327C16.9976 13.8913 16.8185 13.9597 16.633 14.0478L17.491 15.8544C17.5898 15.8075 17.6979 15.765 17.8309 15.7178L17.1631 13.8327ZM17.3156 12.6146L16.5742 14.3899L18.4198 15.1606L19.1611 13.3854L17.3156 12.6146ZM19.7384 12H18.2384V14H19.7384V12ZM21.4183 14.3888L20.6581 12.6075L18.8186 13.3925L19.5787 15.1737L21.4183 14.3888ZM21.3484 14.0518C21.1794 13.971 21.0061 13.8995 20.8294 13.8376L20.1676 15.7249C20.2762 15.763 20.3826 15.8069 20.4864 15.8565L21.3484 14.0518ZM22.3223 13.2941L20.5366 14.0295L21.2982 15.8788L23.0839 15.1434L22.3223 13.2941ZM24.471 14.572L23.4101 13.5115L21.9961 14.926L23.057 15.9865L24.471 14.572ZM23.9682 17.4538L24.6919 15.652L22.8361 14.9065L22.1123 16.7084L23.9682 17.4538ZM24.1527 17.166C24.0927 16.9917 24.0232 16.8208 23.9445 16.654L22.136 17.5082C22.1835 17.6087 22.2254 17.7117 22.2615 17.8167L24.1527 17.166ZM25.3846 17.3153L23.5917 16.5683L22.8225 18.4145L24.6154 19.1615L25.3846 17.3153ZM18.9884 20.25C18.2987 20.25 17.7384 19.6897 17.7384 19H15.7384C15.7384 20.7943 17.1941 22.25 18.9884 22.25V20.25ZM20.2384 19C20.2384 19.6897 19.6781 20.25 18.9884 20.25V22.25C20.7827 22.25 22.2384 20.7943 22.2384 19H20.2384ZM18.9884 17.75C19.6781 17.75 20.2384 18.3103 20.2384 19H22.2384C22.2384 17.2057 20.7827 15.75 18.9884 15.75V17.75ZM17.7384 19C17.7384 18.3103 18.2987 17.75 18.9884 17.75V15.75C17.1941 15.75 15.7384 17.2057 15.7384 19H17.7384Z" fill="white" mask="url(#path-3-outside-1_0_341)"/>
</svg>
