<svg width="24" height="22" viewBox="0 0 24 22" fill="none" xmlns="http://www.w3.org/2000/svg">
<path fill-rule="evenodd" clip-rule="evenodd" d="M7.99985 0C10.7617 0 13.0006 2.23877 13.0006 5.00044C13.0006 7.76211 10.7617 10.0009 7.99985 10.0009C5.23803 10.0009 2.99913 7.76211 2.99913 5.00044C2.99913 2.23877 5.23803 0 7.99985 0ZM23.9923 14.9989C23.9923 13.3422 22.6492 11.9991 20.9924 11.9991L15.6362 11.9983C16.4671 12.7312 16.9913 13.8038 16.9913 14.9989L16.9881 16.4396L17.0007 16.8719C17.0026 18.5716 16.4284 19.9166 15.355 20.9078C15.8996 20.9682 16.4826 20.9985 17.1029 20.9985C21.6719 20.9985 24.1717 19.3466 23.9908 16.052L23.9923 14.9989ZM15.9913 14.9989C15.9913 13.3422 14.6482 11.9991 12.9913 11.9991H2.99994C1.34312 11.9991 0 13.3422 0 14.9989V16.5479C0 20.1923 2.89099 22 8.12024 22C13.3664 22 16.1954 20.1684 15.9897 16.4955L15.9913 14.9989ZM21.9996 5.99956C21.9996 3.79058 20.2088 1.99985 17.9997 1.99985C15.7906 1.99985 13.9997 3.79058 13.9997 5.99956C13.9997 8.20853 15.7906 9.99926 17.9997 9.99926C20.2088 9.99926 21.9996 8.20853 21.9996 5.99956Z" fill="#212121"/>
</svg>
