<svg width="24" height="18" viewBox="0 0 24 18" fill="none" xmlns="http://www.w3.org/2000/svg">
<path fill-rule="evenodd" clip-rule="evenodd" d="M20.4823 0.359409C20.1775 0.0494373 19.7333 -0.0716204 19.317 0.0418371C18.9007 0.155295 18.5755 0.48603 18.464 0.909459C18.3524 1.33289 18.4715 1.78468 18.7762 2.09465C22.5188 5.9105 22.5188 12.0874 18.7762 15.9033C18.5488 16.1327 18.4208 16.4451 18.4208 16.7709C18.4208 17.0967 18.5488 17.4091 18.7762 17.6385C19.0018 17.8699 19.3089 18 19.6293 18C19.9496 18 20.2567 17.8699 20.4823 17.6385C25.1726 12.8666 25.1726 5.13133 20.4823 0.359409ZM13.2135 8.99897C13.2135 9.67386 12.6756 10.221 12.012 10.221C11.3485 10.221 10.8106 9.67386 10.8106 8.99897C10.8106 8.32408 11.3485 7.77697 12.012 7.77697C12.6756 7.77697 13.2135 8.32408 13.2135 8.99897ZM5.22378 2.09465C3.41007 3.91764 2.3927 6.40547 2.40035 8.99897C2.3927 11.5925 3.41007 14.0803 5.22378 15.9033C5.45123 16.1327 5.57917 16.4451 5.57917 16.7709C5.57917 17.0967 5.45123 17.4091 5.22378 17.6385C4.99818 17.8699 4.6911 18 4.37074 18C4.05039 18 3.7433 17.8699 3.51771 17.6385C-1.17257 12.8666 -1.17257 5.13133 3.51771 0.359409C3.98882 -0.119766 4.75266 -0.119766 5.22378 0.359409C5.6949 0.838583 5.6949 1.61548 5.22378 2.09465ZM17.9472 2.95006C17.4677 2.53804 16.7571 2.57097 16.3164 3.02564C15.8756 3.48031 15.8533 4.20344 16.2652 4.6853C18.6023 7.06985 18.6023 10.9281 16.2652 13.3126C15.9202 13.6607 15.8152 14.1858 15.9993 14.6432C16.1834 15.1006 16.6203 15.4002 17.1062 15.4023C17.4214 15.4009 17.7234 15.2736 17.9472 15.0479C19.5246 13.4437 20.4108 11.2678 20.4108 8.99897C20.4108 6.73015 19.5246 4.55427 17.9472 2.95006ZM7.75885 4.6853C6.63586 5.83038 6.00506 7.38162 6.00472 8.99897C6.00506 10.6223 6.64053 12.1788 7.77087 13.3249C8.2367 13.8015 8.2367 14.5713 7.77087 15.0479C7.30225 15.5217 6.54543 15.5217 6.07681 15.0479C4.49941 13.4437 3.61322 11.2678 3.61322 8.99897C3.61322 6.73015 4.49941 4.55427 6.07681 2.95006C6.37291 2.60362 6.83491 2.45519 7.27295 2.56575C7.71098 2.67632 8.05114 3.02724 8.15362 3.47429C8.25611 3.92133 8.10363 4.38908 7.75885 4.6853ZM10.318 5.5407C10.0924 5.30936 9.78528 5.17924 9.46492 5.17924C9.14457 5.17924 8.83748 5.30936 8.61189 5.5407C7.70946 6.45754 7.2024 7.70165 7.2024 8.99897C7.2024 10.2963 7.70946 11.5404 8.61189 12.4572C8.83748 12.6886 9.14457 12.8187 9.46492 12.8187C9.78528 12.8187 10.0924 12.6886 10.318 12.4572C10.5454 12.2278 10.6733 11.9155 10.6733 11.5896C10.6733 11.2638 10.5454 10.9514 10.318 10.722C9.38629 9.76874 9.38629 8.2292 10.318 7.27595C10.5454 7.0465 10.6733 6.73416 10.6733 6.40832C10.6733 6.08249 10.5454 5.77015 10.318 5.5407ZM13.7061 5.5407C14.1772 5.06153 14.941 5.06153 15.4121 5.5407C16.3146 6.45754 16.8216 7.70165 16.8216 8.99897C16.8216 10.2963 16.3146 11.5404 15.4121 12.4572C15.1865 12.6886 14.8795 12.8187 14.5591 12.8187C14.2388 12.8187 13.9317 12.6886 13.7061 12.4572C13.4786 12.2278 13.3507 11.9155 13.3507 11.5896C13.3507 11.2638 13.4786 10.9514 13.7061 10.722C14.6377 9.76874 14.6377 8.2292 13.7061 7.27595C13.235 6.79677 13.235 6.01988 13.7061 5.5407Z" fill="black"/>
</svg>
